<svg xmlns="http://www.w3.org/2000/svg" viewBox="0 0 243.97 167.81"><g id="Layer_2" data-name="Layer 2"><g id="Layer_1-2" data-name="Layer 1"><g id="aieera"><g id="I"><rect x="52.52" y="121.12" width="8.7" height="8.48"/><rect x="52.52" y="132.58" width="8.7" height="35.12"/></g><path id="R" d="M191.68,121.4v8.67a14.85,14.85,0,0,0-5.23,2.22h0a14.68,14.68,0,0,0-6.37,10.64h0c0,.36-.06.72-.08,1.09v23.72h-8.69V121.17H180v5.2a24,24,0,0,1,2.95-2A23.29,23.29,0,0,1,191.68,121.4Z"/><g id="A"><path d="M37.9,121.12v5.11a23.29,23.29,0,1,0,0,36.36v5.11h8.74V121.12ZM23.33,159A14.56,14.56,0,1,1,37.9,144.41,14.57,14.57,0,0,1,23.33,159Z"/></g><g id="E"><path d="M113.47,144.52a23.32,23.32,0,0,0-46.18-4.62,23.37,23.37,0,0,0-.1,8.7,23.33,23.33,0,0,0,45.2,2.93h-9.47a14.58,14.58,0,0,1-26.76-2.93h37A23.81,23.81,0,0,0,113.47,144.52ZM76.33,139.9a14.58,14.58,0,0,1,27.64,0Z"/><path d="M165.72,144.3a23.32,23.32,0,1,0-46.64,0,22.85,22.85,0,0,0,.36,4.08,23.33,23.33,0,0,0,45.2,2.93h-9.46a14.58,14.58,0,0,1-26.77-2.93h37A22.85,22.85,0,0,0,165.72,144.3Zm-37.14-4.62a14.58,14.58,0,0,1,27.65,0Z"/></g><g id="A-2" data-name="A"><path d="M235.22,121.17v5.12a23.29,23.29,0,1,0,0,36.35v5.11H244V121.17ZM220.65,159a14.56,14.56,0,1,1,14.57-14.56A14.56,14.56,0,0,1,220.65,159Z"/></g></g><path d="M164.21,71.85l-.13-.23H139.9v-.17a5.61,5.61,0,0,0-5.42-5.57h-.17a5.59,5.59,0,0,0-5.58,5.58,4.36,4.36,0,0,0,0,.64A5.59,5.59,0,0,0,134.31,77h.17a5.72,5.72,0,0,0,5.42-4.51h23.65l22.1,37.61H166.27a5.59,5.59,0,0,0-11.17.21v.25a5.59,5.59,0,0,0,11.12.45h21ZM139,72a4.66,4.66,0,0,1-4.53,4.14h-.11A4.67,4.67,0,0,1,129.67,72a4.28,4.28,0,0,1,0-.52,4.67,4.67,0,0,1,4.68-4.66h.1A4.69,4.69,0,0,1,139,71.45,3.08,3.08,0,0,1,139,72Zm26.4,38.58a4.67,4.67,0,0,1-9.33,0,1,1,0,0,1,0-.17,4.68,4.68,0,0,1,9.35,0A1.87,1.87,0,0,1,165.35,110.56Z"/><path d="M159.78,90.64v.91H126.14a5.59,5.59,0,0,1-11.18,0c0-.18,0-.35,0-.52a5.58,5.58,0,0,1,11.07-.38Z"/><path d="M134.31,104.76a5.65,5.65,0,0,0-5.58,4.68l-38,.24,32.39-55.31h30.28L148.49,46l-1.22-2.09-6.1-10.36-.28-.47-2.62-4.46L134.43,22l-1.07-1.82L125.49,6.83l-4-6.83-4,6.83-7.84,13.39-1,1.69L102.13,33,99.27,37.9H115a5.58,5.58,0,0,1,11,.84,3.84,3.84,0,0,1,0,.5,5.59,5.59,0,0,1-11.16.43H98.25l-2.91,4.95L94.57,46,87.06,58.76,82.5,66.55,79.28,72l-7.5,12.81-2.23,3.82-5.33,9.1-7.51,12.81h0l33.59-.11v0l38.41-.11a5.6,5.6,0,0,0,5.37,5.56,5.67,5.67,0,0,0,5.77-5,5.47,5.47,0,0,0,0-1.07A5.61,5.61,0,0,0,134.31,104.76Zm0,10.41a4.84,4.84,0,1,1,4.85-4.84A4.84,4.84,0,0,1,134.3,115.17Z"/></g></g></svg>